<mxfile host="app.diagrams.net" agent="Mozilla/5.0 (Macintosh; Intel Mac OS X 10.15; rv:128.0) Gecko/20100101 Firefox/128.0" version="24.7.6">
  <diagram name="Page-1" id="H4xjLb3rDUELiDgAdxUx">
    <mxGraphModel dx="2678" dy="1908" grid="1" gridSize="10" guides="1" tooltips="1" connect="1" arrows="1" fold="1" page="1" pageScale="1" pageWidth="1100" pageHeight="850" math="0" shadow="0">
      <root>
        <mxCell id="0" />
        <mxCell id="1" parent="0" />
        <mxCell id="kWXSbCBgsimBBfNo0bws-14" value="" style="group" vertex="1" connectable="0" parent="1">
          <mxGeometry x="-780" y="-840" width="411" height="204" as="geometry" />
        </mxCell>
        <mxCell id="2" value="Google File System" style="whiteSpace=wrap;strokeWidth=2;" parent="kWXSbCBgsimBBfNo0bws-14" vertex="1">
          <mxGeometry x="178" width="153" height="35" as="geometry" />
        </mxCell>
        <mxCell id="3" value="Chunk Servers" style="rounded=1;absoluteArcSize=1;arcSize=14;whiteSpace=wrap;strokeWidth=2;" parent="kWXSbCBgsimBBfNo0bws-14" vertex="1">
          <mxGeometry x="80" y="85" width="118" height="35" as="geometry" />
        </mxCell>
        <mxCell id="4" value="Master" style="rounded=1;absoluteArcSize=1;arcSize=14;whiteSpace=wrap;strokeWidth=2;" parent="kWXSbCBgsimBBfNo0bws-14" vertex="1">
          <mxGeometry x="337" y="85" width="65" height="35" as="geometry" />
        </mxCell>
        <mxCell id="5" value="Disk 1" style="rounded=1;absoluteArcSize=1;arcSize=14;whiteSpace=wrap;strokeWidth=2;" parent="kWXSbCBgsimBBfNo0bws-14" vertex="1">
          <mxGeometry y="169" width="59" height="35" as="geometry" />
        </mxCell>
        <mxCell id="6" value="Disk 2" style="rounded=1;absoluteArcSize=1;arcSize=14;whiteSpace=wrap;strokeWidth=2;" parent="kWXSbCBgsimBBfNo0bws-14" vertex="1">
          <mxGeometry x="109" y="169" width="59" height="35" as="geometry" />
        </mxCell>
        <mxCell id="7" value="Disk 3" style="rounded=1;absoluteArcSize=1;arcSize=14;whiteSpace=wrap;strokeWidth=2;" parent="kWXSbCBgsimBBfNo0bws-14" vertex="1">
          <mxGeometry x="218" y="169" width="59" height="35" as="geometry" />
        </mxCell>
        <mxCell id="8" value="Metadata" style="rounded=1;absoluteArcSize=1;arcSize=14;whiteSpace=wrap;strokeWidth=2;" parent="kWXSbCBgsimBBfNo0bws-14" vertex="1">
          <mxGeometry x="327" y="169" width="84" height="35" as="geometry" />
        </mxCell>
        <mxCell id="9" value="" style="curved=1;startArrow=none;endArrow=block;exitX=0.19;exitY=0.99;entryX=0.5;entryY=-0.01;" parent="kWXSbCBgsimBBfNo0bws-14" source="2" target="3" edge="1">
          <mxGeometry relative="1" as="geometry">
            <Array as="points">
              <mxPoint x="139" y="60" />
            </Array>
          </mxGeometry>
        </mxCell>
        <mxCell id="10" value="" style="curved=1;startArrow=none;endArrow=block;exitX=0.8;exitY=0.99;entryX=0.5;entryY=-0.01;" parent="kWXSbCBgsimBBfNo0bws-14" source="2" target="4" edge="1">
          <mxGeometry relative="1" as="geometry">
            <Array as="points">
              <mxPoint x="369" y="60" />
            </Array>
          </mxGeometry>
        </mxCell>
        <mxCell id="11" value="" style="curved=1;startArrow=none;endArrow=block;exitX=0.12;exitY=0.97;entryX=0.5;entryY=0;" parent="kWXSbCBgsimBBfNo0bws-14" source="3" target="5" edge="1">
          <mxGeometry relative="1" as="geometry">
            <Array as="points">
              <mxPoint x="30" y="144" />
            </Array>
          </mxGeometry>
        </mxCell>
        <mxCell id="12" value="" style="curved=1;startArrow=none;endArrow=block;exitX=0.5;exitY=0.97;entryX=0.5;entryY=0;" parent="kWXSbCBgsimBBfNo0bws-14" source="3" target="6" edge="1">
          <mxGeometry relative="1" as="geometry">
            <Array as="points" />
          </mxGeometry>
        </mxCell>
        <mxCell id="13" value="" style="curved=1;startArrow=none;endArrow=block;exitX=0.88;exitY=0.97;entryX=0.51;entryY=0;" parent="kWXSbCBgsimBBfNo0bws-14" source="3" target="7" edge="1">
          <mxGeometry relative="1" as="geometry">
            <Array as="points">
              <mxPoint x="248" y="144" />
            </Array>
          </mxGeometry>
        </mxCell>
        <mxCell id="14" value="" style="curved=1;startArrow=none;endArrow=block;exitX=0.5;exitY=0.97;entryX=0.5;entryY=0;" parent="kWXSbCBgsimBBfNo0bws-14" source="4" target="8" edge="1">
          <mxGeometry relative="1" as="geometry">
            <Array as="points" />
          </mxGeometry>
        </mxCell>
      </root>
    </mxGraphModel>
  </diagram>
</mxfile>
